<?xml version="1.0" encoding="utf-8"?>
<!-- Generator: Adobe Illustrator 16.0.0, SVG Export Plug-In . SVG Version: 6.00 Build 0)  -->
<!DOCTYPE svg PUBLIC "-//W3C//DTD SVG 1.1//EN" "http://www.w3.org/Graphics/SVG/1.1/DTD/svg11.dtd">
<svg version="1.1" id="Layer_1" xmlns="http://www.w3.org/2000/svg" xmlns:xlink="http://www.w3.org/1999/xlink" x="0px" y="0px"
	 width="2048px" height="2048px" viewBox="0 0 2048 2048" enable-background="new 0 0 2048 2048" xml:space="preserve">
<g>
	<g>
		<g>
			<g>
				<radialGradient id="SVGID_1_" cx="668.1147" cy="1165.1299" r="124.8199" gradientUnits="userSpaceOnUse">
					<stop  offset="0" style="stop-color:#FFDA00"/>
					<stop  offset="0.0685" style="stop-color:#FDCA03"/>
					<stop  offset="0.2023" style="stop-color:#F9A00B"/>
					<stop  offset="0.3865" style="stop-color:#F35D18"/>
					<stop  offset="0.5515" style="stop-color:#EC1C24"/>
					<stop  offset="0.5839" style="stop-color:#DC1820"/>
					<stop  offset="0.6467" style="stop-color:#B30F14"/>
					<stop  offset="0.6788" style="stop-color:#9B0A0E"/>
					<stop  offset="0.741" style="stop-color:#8B090C"/>
					<stop  offset="0.8624" style="stop-color:#610507"/>
					<stop  offset="1" style="stop-color:#2B0000"/>
				</radialGradient>
				<path fill="url(#SVGID_1_)" d="M797.018,1020.488c-0.584,77.953-63.929,140.963-142.014,140.963
					c-78.079,0-141.418-63.003-142.013-140.943c-0.006,0.502-0.029,0.999-0.029,1.502c0,78.443,63.595,142.039,142.042,142.039
					c78.449,0,142.042-63.596,142.042-142.039C797.046,1021.5,797.024,1020.997,797.018,1020.488z"/>
				<path fill="#231F20" d="M719.239,890.954l-5.617-2.762v36.178l1.825,1.146c33.453,21.005,53.428,57.079,53.428,96.494
					c0,62.786-51.08,113.87-113.871,113.87c-62.788,0-113.871-51.084-113.871-113.87c0-40.718,22-78.603,57.411-98.874l1.963-1.121
					v-35.526l-5.507,2.49c-52.205,23.581-85.938,75.805-85.938,133.031c0,80.474,65.469,145.941,145.941,145.941
					c80.473,0,145.942-65.467,145.942-145.941C800.946,965.918,769.64,915.697,719.239,890.954z"/>
				<linearGradient id="SVGID_2_" gradientUnits="userSpaceOnUse" x1="655.0039" y1="1065.7197" x2="655.0039" y2="975.4734">
					<stop  offset="0.1212" style="stop-color:#D81F26"/>
					<stop  offset="0.8061" style="stop-color:#EE4350"/>
				</linearGradient>
				<path fill="url(#SVGID_2_)" d="M717.522,894.455v27.76c33.179,20.831,55.254,57.73,55.254,99.795
					c0,65.043-52.729,117.767-117.772,117.767c-65.042,0-117.771-52.724-117.771-117.767c0-43.788,23.914-81.963,59.374-102.258
					v-27.22c-49.311,22.28-83.646,71.854-83.646,129.478c0,78.443,63.595,142.039,142.042,142.039
					c78.449,0,142.042-63.596,142.042-142.039C797.046,965.997,764.618,917.58,717.522,894.455z"/>
				<path fill="#231F20" d="M719.433,907.223l-5.811-3.27v29.38l1.685,1.16c28.793,19.882,45.984,52.598,45.984,87.517
					c0,58.599-47.68,106.289-106.288,106.289c-58.606,0-106.287-47.689-106.287-106.289c0-36.835,18.678-70.529,49.961-90.122
					l1.829-1.147v-28.729l-5.687,2.934c-44.076,22.7-71.456,67.562-71.456,117.064c0,72.586,59.054,131.638,131.64,131.638
					c72.587,0,131.64-59.052,131.64-131.638C786.644,974.529,760.891,930.542,719.433,907.223z"/>
				<linearGradient id="SVGID_3_" gradientUnits="userSpaceOnUse" x1="655.0044" y1="1089.1221" x2="655.0044" y2="959.973">
					<stop  offset="0.1212" style="stop-color:#4E5AA7"/>
					<stop  offset="1" style="stop-color:#A0ACD7"/>
				</linearGradient>
				<path fill="url(#SVGID_3_)" d="M717.522,910.622v20.661c28.79,19.88,47.669,53.092,47.669,90.728
					c0,60.85-49.331,110.189-110.188,110.189c-60.855,0-110.188-49.339-110.188-110.189c0-39.402,20.694-73.947,51.792-93.431
					v-20.17c-41.171,21.212-69.343,64.1-69.343,113.602c0,70.55,57.19,127.736,127.739,127.736
					c70.552,0,127.74-57.186,127.74-127.736C782.744,974.18,756.438,932.514,717.522,910.622z"/>
			</g>
			<path opacity="0.75" fill="#231F20" d="M578.62,897.704v50.41c5.929-6.101,12.624-11.576,20.058-16.226l1.829-1.147v-8.726
				v-20.003v-15.523l-5.507,2.49C589.311,891.551,583.854,894.48,578.62,897.704z M719.239,890.954l-5.617-2.762v15.761v20.417
				v8.963l1.685,1.16c8.054,5.565,15.165,12.157,21.28,19.503v-53.022C731.097,897.292,725.31,893.931,719.239,890.954z"/>
			<g>
				<linearGradient id="SVGID_4_" gradientUnits="userSpaceOnUse" x1="657.604" y1="945.4058" x2="657.604" y2="979.3662">
					<stop  offset="0" style="stop-color:#231F20"/>
					<stop  offset="0.5273" style="stop-color:#7A7C7F"/>
					<stop  offset="0.9879" style="stop-color:#231F20"/>
				</linearGradient>
				<polygon fill="url(#SVGID_4_)" points="685.166,852.987 696.935,865.88 696.935,969.401 657.604,1047.45 618.275,969.401 
					618.275,865.88 630.044,852.987 575.165,852.987 585.121,865.712 585.121,973.194 654.215,1112.047 660.996,1112.047 
					730.089,973.194 730.089,865.712 740.043,852.987 				"/>
				<linearGradient id="SVGID_5_" gradientUnits="userSpaceOnUse" x1="657.605" y1="869.1553" x2="657.605" y2="1162.2478">
					<stop  offset="0.1212" style="stop-color:#D4D6D7"/>
					<stop  offset="0.4061" style="stop-color:#A6A8AB"/>
					<stop  offset="0.8303" style="stop-color:#D4D6D7"/>
					<stop  offset="1" style="stop-color:#FFFFFF"/>
				</linearGradient>
				<polygon fill="url(#SVGID_5_)" points="694.009,856.89 700.835,864.363 700.835,970.33 658.58,1054.188 656.629,1054.188 
					614.375,970.33 614.375,864.363 621.201,856.89 583.171,856.89 589.021,864.363 589.021,972.278 656.629,1108.146 
					658.58,1108.146 726.189,972.278 726.189,864.363 732.039,856.89 				"/>
				<linearGradient id="SVGID_6_" gradientUnits="userSpaceOnUse" x1="657.605" y1="899.0591" x2="657.605" y2="1064.8293">
					<stop  offset="0.1212" style="stop-color:#FFFFFF"/>
					<stop  offset="0.4061" style="stop-color:#58595B"/>
					<stop  offset="1" style="stop-color:#FFFFFF"/>
				</linearGradient>
				<path fill="url(#SVGID_6_)" d="M694.009,856.89l6.826,7.473V970.33l-42.255,83.859h-1.951l-42.254-83.859V864.363l6.826-7.473
					h-38.03l5.851,7.473v107.916l67.608,135.867h1.951l67.609-135.867V864.363l5.85-7.473H694.009z M724.237,863.693v108.125
					l-66.633,133.908l-66.634-133.908V863.693l-3.797-4.856h29.605l-4.354,4.772v107.18l43.003,85.348h4.354l43.006-85.348v-107.18
					l-4.357-4.772h29.606L724.237,863.693z"/>
			</g>
		</g>
		
			<radialGradient id="SVGID_7_" cx="654.4639" cy="1173.2891" r="92.0893" gradientTransform="matrix(1 0 0 0.0874 0 1081.2456)" gradientUnits="userSpaceOnUse">
			<stop  offset="0" style="stop-color:#231F20"/>
			<stop  offset="0.2668" style="stop-color:#252122;stop-opacity:0.7332"/>
			<stop  offset="0.4094" style="stop-color:#2D292A;stop-opacity:0.5906"/>
			<stop  offset="0.5227" style="stop-color:#3A3738;stop-opacity:0.4773"/>
			<stop  offset="0.6206" style="stop-color:#4D4A4B;stop-opacity:0.3794"/>
			<stop  offset="0.7086" style="stop-color:#666364;stop-opacity:0.2914"/>
			<stop  offset="0.7894" style="stop-color:#848283;stop-opacity:0.2106"/>
			<stop  offset="0.8648" style="stop-color:#A8A7A7;stop-opacity:0.1352"/>
			<stop  offset="0.9339" style="stop-color:#D1D0D0;stop-opacity:0.0661"/>
			<stop  offset="1" style="stop-color:#FFFFFF;stop-opacity:0"/>
		</radialGradient>
		<ellipse opacity="0.69" fill="url(#SVGID_7_)" cx="654.464" cy="1183.848" rx="104.23" ry="11.165"/>
	</g>
	<g>
		<g>
			<polygon fill="#231F20" points="1100.937,1074.562 1104.84,1074.562 1214.261,1074.562 1214.261,1047.264 1133.442,1047.264 
				1133.442,1031.398 1211.729,1031.398 1211.729,1005.591 1133.442,1005.591 1133.442,990.771 1214.261,990.771 1214.261,963.469 
				1100.937,963.469 			"/>
			<polygon fill="#231F20" points="1349.773,1074.562 1353.674,1074.562 1373.548,1074.562 1373.548,1050.783 1349.773,1050.783 			
				"/>
			<polygon fill="#231F20" points="815.76,1036.759 819.66,1036.759 884.283,1036.759 884.283,1008.415 815.76,1008.415 			"/>
			<polygon fill="#231F20" points="1037.054,1041.265 1009.348,963.469 978.092,963.469 950.854,1040.718 920.707,963.469 
				886.743,963.469 929.96,1074.562 971.701,1074.562 993.8,1012.104 1015.893,1074.562 1057.64,1074.562 1100.699,963.469 
				1066.716,963.469 			"/>
			<path fill="#231F20" d="M1334.715,1018.006c-0.967-0.782-1.996-1.444-3.057-2.064c0.871-0.67,1.703-1.417,2.441-2.309
				c1.812-2.167,3.092-4.915,3.885-8.228c0.791-3.321,1.149-7.256,1.154-12.138c0-5.184-0.86-9.776-2.703-13.729
				c-1.368-2.959-3.298-5.533-5.677-7.635c-3.582-3.167-8.095-5.262-13.292-6.565c-5.207-1.315-11.137-1.864-17.803-1.869h-78.312
				v111.093h83.373c6.072,0,11.459-0.521,16.224-1.748c3.573-0.924,6.8-2.243,9.631-4.063c4.254-2.707,7.534-6.589,9.585-11.386
				c2.064-4.807,2.989-10.468,2.989-17.065c0-4.32-0.431-7.988-1.331-11.182C1340.5,1024.318,1337.974,1020.604,1334.715,1018.006z
				 M1253.854,1031.398h46.554c3.011-0.005,5.224,0.227,6.682,0.588c1.101,0.271,1.75,0.6,2.13,0.863
				c0.286,0.214,0.44,0.383,0.595,0.615c0.222,0.334,0.455,0.888,0.609,1.845c0.157,0.935,0.226,2.229,0.223,3.804
				c0.006,2.135-0.125,3.773-0.377,4.798c-0.189,0.779-0.405,1.179-0.623,1.456c-0.165,0.208-0.352,0.387-0.715,0.601
				c-0.533,0.308-1.516,0.671-3.078,0.917c-1.559,0.243-3.668,0.379-6.336,0.379h-45.663V1031.398z M1304.914,1003.322
				c-0.501,0.638-1.064,1.091-1.76,1.418c-0.702,0.33-1.573,0.548-2.746,0.548h-46.554v-14.517h46.407
				c1.329,0,2.363,0.193,3.141,0.484c1.165,0.447,1.791,1,2.326,1.876c0.525,0.871,0.899,2.182,0.899,4.006
				C1306.635,999.93,1305.911,1002.076,1304.914,1003.322z"/>
			<polygon fill="#231F20" points="1497.656,1053.48 1497.656,999.981 1473.884,999.981 1473.884,1074.562 1538.938,1074.562 
				1538.938,1053.48 			"/>
			<polygon fill="#231F20" points="1447.335,1048.721 1410.253,999.981 1377.577,999.981 1377.577,1074.562 1401.354,1074.562 
				1401.354,1025.912 1437.834,1074.562 1471.109,1074.562 1471.109,999.981 1447.335,999.981 			"/>
		</g>
		<g>
			<linearGradient id="SVGID_8_" gradientUnits="userSpaceOnUse" x1="1177.3496" y1="972.7363" x2="1177.3496" y2="1097.5635">
				<stop  offset="0.1212" style="stop-color:#D4D6D7"/>
				<stop  offset="0.4061" style="stop-color:#A6A8AB"/>
				<stop  offset="0.8303" style="stop-color:#D4D6D7"/>
				<stop  offset="1" style="stop-color:#FFFFFF"/>
			</linearGradient>
			<path fill="url(#SVGID_8_)" d="M1104.838,1070.66h105.525v-19.498h-80.82v-23.665h78.289v-18.009h-78.289v-22.623h80.82v-19.5
				h-105.525V1070.66z M1037.857,1050.122h-1.787l-29.468-82.756h-25.75l-29.172,82.756h-1.34l-32.297-82.756h-25.6l40.186,103.294
				h36.316l24.856-70.251l24.856,70.251h36.316l40.037-103.294h-25.599L1037.857,1050.122z M819.662,1032.857h60.727v-20.541
				h-60.727V1032.857z M1353.674,1070.66h15.972v-15.971h-15.972V1070.66z M1322.438,1016.186c8.337-2.679,12.8-6.251,12.8-22.921
				c0-19.05-12.651-25.898-35.571-25.898h-74.418v103.294h79.479c23.366,0,34.529-8.187,34.529-30.363
				C1339.257,1024.073,1332.709,1019.609,1322.438,1016.186z M1249.955,986.866h50.307c6.846,0,10.27,4.019,10.27,10.269
				c0,6.846-3.424,12.057-10.12,12.057h-50.456V986.866z M1299.518,1051.162h-49.562v-23.665h50.456
				c12.8,0,14.141,3.722,14.141,11.61C1314.552,1048.188,1312.765,1051.162,1299.518,1051.162z M1493.758,1057.383v-53.499h-15.972
				v66.776h57.25v-13.277H1493.758z M1451.236,1057.383h-2.215l-40.699-53.499h-26.845v66.776h15.973v-53.498h2.214l40.121,53.498
				h27.422v-66.776h-15.971V1057.383z"/>
		</g>
		<linearGradient id="SVGID_9_" gradientUnits="userSpaceOnUse" x1="1150.0234" y1="997.8657" x2="1150.0234" y2="1061.736">
			<stop  offset="0.1212" style="stop-color:#FFFFFF"/>
			<stop  offset="0.4061" style="stop-color:#58595B"/>
			<stop  offset="1" style="stop-color:#FFFFFF"/>
		</linearGradient>
		<path fill="url(#SVGID_9_)" d="M1038.273,1049.019l0.395,1.104h1.784l31.55-82.752h-2.598L1038.273,1049.019z M892.446,967.37
			l40.185,103.29h2.599l-40.183-103.29H892.446z M952.277,1048.424l0.663,1.698h1.34l29.17-82.752h-2.599L952.277,1048.424z
			 M1451.237,1056.872l0.388,0.509h2.21v-53.497h-2.598V1056.872z M1303.008,1027.497h-2.6c12.802,0,14.141,3.722,14.141,11.616
			c0,9.071-1.788,12.045-15.031,12.045h2.601c13.241,0,15.029-2.974,15.029-12.045
			C1317.147,1031.219,1315.808,1027.497,1303.008,1027.497z M1310.531,997.138c0,6.848-3.424,12.052-10.123,12.052h2.6
			c6.699,0,10.123-5.204,10.123-12.052c0-6.249-3.424-10.266-10.27-10.266h-2.6C1307.107,986.872,1310.531,990.889,1310.531,997.138
			z M819.66,1032.857h2.599v-20.541h-2.599V1032.857z M1400.048,1017.16v0.524l39.737,52.977h2.6l-40.125-53.5H1400.048z
			 M1477.783,1003.884v66.776h2.603v-66.776H1477.783z M995.1,1004.089l23.553,66.571h2.599l-24.853-70.255L995.1,1004.089z
			 M1381.478,1070.66h2.603v-66.776h-2.603V1070.66z M1104.84,1070.66h2.603V967.37h-2.603V1070.66z M1225.251,1070.66h2.602V967.37
			h-2.602V1070.66z M1353.674,1070.66h2.603v-15.976h-2.603V1070.66z"/>
	</g>
</g>
</svg>
